<svg width="1288" height="666" viewBox="0 0 1288 666" fill="none" xmlns="http://www.w3.org/2000/svg">
<g opacity="0.1">
<path d="M1019.52 690.839V26.1606" stroke="#F1F6FF" stroke-width="2" stroke-miterlimit="10" stroke-linecap="round" stroke-linejoin="round"/>
<path d="M427.667 692.292V208.802" stroke="#F1F6FF" stroke-width="2" stroke-miterlimit="10" stroke-linecap="round" stroke-linejoin="round"/>
<path d="M444.135 692.292V192.33" stroke="#F1F6FF" stroke-width="2" stroke-miterlimit="10" stroke-linecap="round" stroke-linejoin="round"/>
<path d="M452.853 189.908L1019.52 680.665" stroke="#F1F6FF" stroke-width="2" stroke-miterlimit="10" stroke-linecap="round" stroke-linejoin="round"/>
<path d="M444.135 204.442L1005.48 690.839" stroke="#F1F6FF" stroke-width="2" stroke-miterlimit="10" stroke-linecap="round" stroke-linejoin="round"/>
<path d="M1036.48 690.839V26.1606" stroke="#F1F6FF" stroke-width="2" stroke-miterlimit="10" stroke-linecap="round" stroke-linejoin="round"/>
<path d="M1602.66 189.908L1036.48 680.665" stroke="#F1F6FF" stroke-width="2" stroke-miterlimit="10" stroke-linecap="round" stroke-linejoin="round"/>
<path d="M1611.38 204.442L1050.04 690.839" stroke="#F1F6FF" stroke-width="2" stroke-miterlimit="10" stroke-linecap="round" stroke-linejoin="round"/>
<path d="M431.542 178.765L6.78027 684.541V710.217C515.816 707.31 1540.18 707.31 2049.22 710.217V684.541L1624.46 178.765" stroke="#F1F6FF" stroke-width="2" stroke-miterlimit="10" stroke-linecap="round" stroke-linejoin="round"/>
<path d="M6.78027 710.702L440.744 193.299L431.542 178.765L1027.76 6.78223V23.7383L440.744 193.299" stroke="#F1F6FF" stroke-width="2" stroke-miterlimit="10" stroke-linecap="round" stroke-linejoin="round"/>
<path d="M2049.22 710.702L1615.26 193.299L1624.46 178.765L1027.76 6.78223V23.7383L1615.26 193.299" stroke="#F1F6FF" stroke-width="2" stroke-miterlimit="10" stroke-linecap="round" stroke-linejoin="round"/>
<path d="M431.542 178.765L6.78027 684.541V710.218C515.816 707.311 1540.18 707.311 2049.22 710.218V684.541L1624.46 178.765L1027.76 6.78223L431.542 178.765Z" stroke="#F1F6FF" stroke-width="2.75" stroke-miterlimit="10" stroke-linecap="round" stroke-linejoin="round"/>
</g>
</svg>
